PathFileType	4	(X/Y/Z)	T1_P1_NoVision_NoMovement_0_0-649.trc
DataRate	CameraRate	NumFrames	NumMarkers	Units	OrigDataRate	OrigDataStartFrame	OrigNumFrames
60	60	4	27	m	60	162	649
Frame#	Time	RHip			RKnee			RAnkle			RBigToe			RSmallToe			RHeel			LHip			LKnee			LAnkle			LBigToe			LSmallToe			LHeel			Neck			Head			Nose			RShoulder			RElbow			RWrist			RThumb			RIndex			RPinky			LShoulder			LElbow			LWrist			LThumb			LIndex			LPinky		
		X1	Y1	Z1	X2	Y2	Z2	X3	Y3	Z3	X4	Y4	Z4	X5	Y5	Z5	X6	Y6	Z6	X7	Y7	Z7	X8	Y8	Z8	X9	Y9	Z9	X10	Y10	Z10	X11	Y11	Z11	X12	Y12	Z12	X13	Y13	Z13	X14	Y14	Z14	X15	Y15	Z15	X16	Y16	Z16	X17	Y17	Z17	X18	Y18	Z18	X19	Y19	Z19	X20	Y20	Z20	X21	Y21	Z21	X22	Y22	Z22	X23	Y23	Z23	X24	Y24	Z24	X25	Y25	Z25	X26	Y26	Z26	X27	Y27	Z27
163	2.716666666666667	-70.39353333097003	3834.7337795257263	-523.8668809877436	295.6428660719851	3977.4515843302743	-518.7026366605805	636.038842179589	4126.271643492674	-525.7711056315935	732.2189509856879	4033.372271741127	-517.6333914920061	738.6716468870226	4078.390412549299	-611.0712158959475	663.6613671610107	4174.98586235984	-517.6421718173739	-109.7816248980667	3906.694967381105	-339.73244608588647	260.7626724980956	4025.864910060344	-335.74612784631614	603.9620205905992	4253.495440746971	-358.9039587852839	683.5228536986095	4135.937409215104	-236.50628450710124	659.1354617173891	4235.675038055509	-225.26727065675777	638.574836023767	4298.059927642382	-387.6171443193468	-627.646316170027	3676.2976178648196	-450.89457727550905	-870.8977861912215	3465.5434174895227	-354.0278406189631	-687.9728709674904	3480.486043384786	-300.3751452478446	-556.7168826076818	3608.555626100013	-563.1576746471604	-289.8017177681783	3742.691029930131	-676.6630662974928	-32.44064516699757	3685.8980491450484	-580.7031622637526	83.87042895856985	3757.28200476489	-538.4122924809843	101.90288898026031	3759.459860034025	-544.7110451819381	93.79013543358647	3787.513820500269	-591.1495580696626	-615.872468943739	3823.5158174595954	-342.7534896955932	-378.06839196484714	3944.4394169996217	-275.24929577190636	-137.67467901191625	3927.0079478047446	-194.80328086839899	-18.581543220338634	3964.660855980504	-213.3799381054174	6.575987780444643	3985.3990561550254	-201.3059113542111	-16.72608936954917	3978.4621414182125	-181.1060786950692
164	2.7333333333333334	-75.38046554893896	3831.628719760385	-522.4219337289693	302.48112745992637	3981.433461962111	-525.0712697517499	640.2785880147735	4158.381700843955	-535.8243711916257	731.8323200261332	4043.499891636767	-510.4100362245781	738.6881793048834	4079.1518740201036	-611.1758705704265	663.7453594895622	4175.947511419658	-518.1494860090496	-109.87833173302704	3906.8347608477916	-339.73671077048357	260.6005015296786	4025.9308922705313	-335.6661723277832	603.783439441535	4253.0432649438635	-358.8714649520156	678.1534199435447	4133.116230283772	-237.11371041506075	648.6218971227646	4202.850008783096	-221.84478864023	638.4381655783934	4298.550632811131	-387.9027153909131	-627.6591379039072	3676.3101641705025	-450.88399947310455	-870.6705770463944	3463.802193075497	-347.70822144958237	-688.0315511534501	3480.38024480347	-300.36025811281087	-556.7074194477283	3608.4130292370232	-563.0841511223393	-290.00769871060567	3742.6768278476316	-676.6731029614277	-32.46961008565707	3685.8894221248497	-580.7401965446867	78.21368753358303	3755.248617079375	-538.9545172491792	101.61500631835682	3759.579737434668	-544.6271273916537	93.64367017716722	3787.131304405036	-591.1155870054295	-615.9059687986664	3823.4814973242396	-342.8151497922934	-383.5656712174787	3942.5915360076124	-275.7832634567727	-138.50298693399415	3953.653300736198	-199.00538692690168	-18.29325693500649	3965.6659054107167	-213.72972953634311	11.483896598063883	3989.437344151231	-202.8061079002347	-11.764167667670328	3983.318494766864	-182.82337179750004
165	2.75	-70.44780844793311	3835.091553374634	-524.0959661387174	296.46682300213917	3978.583505324989	-525.5176484493636	640.4120620237952	4158.04244385403	-535.668597245985	738.6359730299291	4047.1222201748833	-512.3409563380305	738.8152883514188	4078.8866171465415	-611.1230955003182	663.7117196589408	4175.446143574721	-517.882403563681	-104.80010759672501	3910.5357754208235	-341.24341233659663	255.10352000568307	4023.1521930732415	-336.2220459310006	603.6692859004692	4253.32824185428	-358.7660816957227	672.7613878361982	4134.545188643508	-237.9621205120756	652.7289812947272	4232.629544702157	-226.2500493235568	631.3033705959363	4293.688061634845	-385.62227232524225	-627.6525034989331	3676.142568987953	-450.8072974023791	-870.7266352086759	3463.7948527173116	-347.7153251440402	-688.2515397144495	3480.266468511539	-295.0891245212881	-556.7105596086323	3608.446364621467	-563.1108320030683	-289.619755144846	3743.205010296216	-682.4093363524437	-32.72896244280617	3712.245683914414	-587.2723521596488	73.98005230997668	3752.964142163722	-537.8655134123485	103.02725182184786	3776.9468640974396	-558.4205053594235	93.56434098258056	3787.473719399669	-591.274509687439	-615.7616500068848	3823.2493750142826	-342.64066504261916	-379.0515471516924	3945.9420422384474	-276.99172592989004	-138.59122400792432	3953.241486055693	-198.76346462414085	-18.607465158529642	3964.8118462689667	-213.34662582857806	11.187532881089783	3989.3098507736863	-202.81838775725157	-11.809501306017216	3982.844025988026	-182.67982129904183
166	2.7666666666666666	-75.34990702401471	3831.8102162756268	-522.5285277709822	296.4233093242032	3978.07940066747	-525.2702420602154	639.9434412814171	4158.084082284113	-535.8215946477155	730.0076994793889	4064.8873746559575	-525.9818258324103	737.1711730766922	4078.0193051082492	-610.9026136649276	663.4664705704353	4175.562323933667	-518.1122561992755	-109.84080670779149	3906.880025228694	-339.77058118102366	255.15803843983574	4023.221820667446	-336.34623997765084	603.636596766338	4252.922476688655	-358.8210766332198	682.7917782180332	4163.409974581314	-241.69630084072048	658.0735779294399	4231.548651584686	-225.34348295035437	638.3104656406579	4298.067601375546	-387.5737102329563	-627.6716055971646	3676.0964013932107	-450.81580395988004	-870.667305843065	3463.9216327621966	-347.7309345088983	-688.2310317656384	3480.6671669672	-295.2112664771924	-556.7326660639033	3608.415857867931	-563.1202771559069	-289.4985466246726	3743.563130443714	-682.6893844663433	-32.34489025348051	3686.0066100596073	-580.8049620928948	74.08492075071963	3752.929778603018	-537.8496196600017	103.2162728907196	3777.043027229366	-558.5061338418624	93.78216346390792	3787.204991975308	-591.1216276426086	-615.7659985297057	3823.1439385625204	-342.6453168715238	-379.0106315512652	3946.00087235324	-276.9942026022251	-138.3918030562598	3953.5424477358297	-198.94350949239058	-18.257389542170674	3965.9228682090907	-213.71432633130073	11.49389866632716	3989.6969636485946	-202.76130218421616	-11.56003875088508	3983.3683240068144	-182.84841961951582
